# xmcd CD database file
#
# Track frame offsets:
#	150
#	15428
#	26862
#	42140
#	53588
#
# Disc length: 796 seconds
#
# Revision: 0
# Processed by: cddbd v1.5.2PL0 Copyright (c) Steve Scherf et al.
# Submitted via: CDex 1.70beta2
#
DISCID=31031a05
DTITLE=studio皐 - 嫁 404 Not Found
DYEAR=2007
DGENRE=Doujin
TTITLE0=ココ - 嫁 404 Not Found
TTITLE1=ココ - 人生賛歌
TTITLE2=嫁 404 Not Found(instrumental)
TTITLE3=人生賛歌(instrumental)
TTITLE4=ココ - キラキラ・スター(remastering)
EXTD=YEAR: 2007
EXTT0=
EXTT1=
EXTT2=
EXTT3=
EXTT4=
PLAYORDER=
